<?xml version="1.0" encoding="UTF-8"?>
<svg version="1.1" xmlns="http://www.w3.org/2000/svg" width="1080" height="1080">
<path d="M0 0 C3.09425877 1.66967155 6.19543187 3.3260727 9.29736328 4.98144531 C21.48461281 11.48954483 33.64822851 18.04067022 45.79223633 24.62915039 C54.18948997 29.18435957 62.6000664 33.71454379 71.01391602 38.23901367 C76.31459753 41.09072885 81.6115603 43.94885498 86.89892578 46.82519531 C99.49757985 53.67841554 112.15761804 60.39649991 124.88964844 66.99853516 C128.6456544 68.94850835 132.39654177 70.90820568 136.1472168 72.8684082 C139.0203501 74.36921007 141.89507207 75.8669345 144.77001953 77.36425781 C148.81136475 79.46965324 152.84682008 81.58586709 156.87939453 83.70800781 C278.65091473 150.53476448 278.65091473 150.53476448 414.44726562 155.06225586 C432.8292144 148.95956418 448.76887024 138.77085833 462.73095703 125.47363281 C464.14116327 124.25776595 465.55726453 123.04868013 466.98095703 121.84863281 C489.91523194 101.87291374 505.79989533 71.96938368 520.04296875 45.58935547 C522.54708795 40.96720197 525.10697408 36.37666087 527.66845703 31.78613281 C528.46955183 30.3449008 529.27037153 28.90351581 530.07080078 27.46191406 C530.61865234 26.47578125 531.16650391 25.48964844 531.73095703 24.47363281 C532.39095703 24.47363281 533.05095703 24.47363281 533.73095703 24.47363281 C535.63257162 38.59991258 534.81719831 52.83265779 533.54345703 66.97363281 C533.4784903 67.70697845 533.41352356 68.4403241 533.34658813 69.19589233 C532.13939228 82.5352893 530.04056289 95.48062507 526.73095703 108.47363281 C526.50537109 109.3732373 526.27978516 110.2728418 526.04736328 111.19970703 C513.83330232 159.02948672 487.49551458 197.62644663 446.73095703 225.47363281 C445.93560547 226.01761719 445.14025391 226.56160156 444.32080078 227.12207031 C427.34115069 237.96269348 407.41132115 244.59536155 387.91845703 249.16113281 C387.1148877 249.3515918 386.31131836 249.54205078 385.48339844 249.73828125 C367.02602201 253.83356748 348.84714645 255.01644066 329.98095703 254.91113281 C328.82175751 254.90809143 327.66255798 254.90505005 326.4682312 254.9019165 C307.25988501 254.82765169 288.66441263 253.79489531 269.73095703 250.47363281 C268.46928711 250.25400879 267.20761719 250.03438477 265.90771484 249.80810547 C237.62837686 244.74876075 210.02218116 237.39086014 182.73095703 228.47363281 C181.5757959 228.09899902 180.42063477 227.72436523 179.23046875 227.33837891 C147.94092001 217.11680364 117.57896446 204.30996133 87.73095703 190.47363281 C87.05186279 190.1591217 86.37276855 189.8446106 85.6730957 189.52056885 C62.7229628 178.88314158 39.97190886 167.92202576 17.62548828 156.05957031 C14.17564395 154.23024589 10.71357571 152.42674406 7.24267578 150.63769531 C-4.39185391 144.63399561 -15.85375681 138.39315952 -27.22607422 131.90722656 C-33.85748317 128.12742232 -40.52997835 124.42279174 -47.20654297 120.72363281 C-60.38735741 113.42030104 -60.38735741 113.42030104 -66.77148438 109.78710938 C-69.92607721 107.99553097 -73.09506237 106.23058958 -76.26904297 104.47363281 C-77.03780762 104.04630859 -77.80657227 103.61898437 -78.59863281 103.17871094 C-128.3617748 75.71109293 -184.56053463 64.72169567 -239.94165039 80.31152344 C-250.88534711 83.54058669 -261.73260395 87.08344989 -272.26904297 91.47363281 C-272.94064453 91.75110352 -273.61224609 92.02857422 -274.30419922 92.31445312 C-293.48479256 100.32402871 -311.90781659 110.05226069 -329.26904297 121.47363281 C-330.49556127 122.26927387 -331.72212382 123.06484672 -332.94873047 123.86035156 C-347.75843295 133.53759101 -361.96873824 143.9990594 -375.67480469 155.17919922 C-377.87603034 156.96647309 -380.10515345 158.71786222 -382.33154297 160.47363281 C-392.47094306 168.60853865 -402.16717861 177.17832243 -411.58789062 186.1340332 C-414.80515301 189.18897951 -418.05430055 192.17973449 -421.40966797 195.08300781 C-425.56917469 198.69158984 -429.34842202 202.56537174 -433.16748047 206.53222656 C-435.26904297 208.47363281 -435.26904297 208.47363281 -437.26904297 208.47363281 C-437.26904297 209.13363281 -437.26904297 209.79363281 -437.26904297 210.47363281 C-438.5246582 211.71020508 -438.5246582 211.71020508 -440.39013672 213.22753906 C-446.39423949 218.33558599 -451.89012472 223.94544154 -457.45092773 229.52514648 C-459.32733772 231.40691555 -461.20903266 233.28328019 -463.09130859 235.15917969 C-469.03229298 241.09706595 -474.8269064 247.06950753 -480.26904297 253.47363281 C-481.52152739 254.8242171 -482.78668787 256.16361548 -484.08154297 257.47363281 C-484.92652344 258.33988281 -484.92652344 258.33988281 -485.78857422 259.22363281 C-487.26904297 260.47363281 -487.26904297 260.47363281 -489.26904297 260.47363281 C-488.88209273 252.2218308 -486.83343506 244.81510875 -484.33154297 236.97363281 C-484.03434357 236.03204819 -484.03434357 236.03204819 -483.73114014 235.07144165 C-476.81337618 213.19572656 -468.16046193 192.1663205 -458.26904297 171.47363281 C-457.87281738 170.63203613 -457.4765918 169.79043945 -457.06835938 168.92333984 C-443.73931421 140.6928167 -426.75926352 113.84512506 -407.26904297 89.47363281 C-406.62064453 88.64476562 -405.97224609 87.81589844 -405.30419922 86.96191406 C-390.00260043 67.52982235 -373.22740626 48.42384252 -354.26904297 32.47363281 C-353.36412109 31.67957031 -352.45919922 30.88550781 -351.52685547 30.06738281 C-308.41060648 -7.54554457 -255.32864295 -32.5152227 -198.83154297 -41.27636719 C-198.08791504 -41.39214111 -197.34428711 -41.50791504 -196.578125 -41.62719727 C-128.06554178 -51.4349533 -60.00327173 -32.4297518 0 0 Z " fill="#00599B" transform="translate(517.26904296875,598.5263671875)"/>
<path d="M0 0 C0.886875 0.39058594 1.77375 0.78117188 2.6875 1.18359375 C23.27095597 11.2752048 31.60100689 33.97559591 41.50390625 53.25 C44.52366184 59.10989133 47.63422281 64.91233779 50.8125 70.6875 C55.79604753 79.74610942 60.66168523 88.8633384 65.5 98 C70.26031089 106.98762659 75.04040068 115.96086976 79.9375 124.875 C85.01184191 134.11685552 89.95150617 143.42725667 94.875 152.75 C101.9429399 166.13298576 109.08173099 179.47492499 116.27148438 192.79296875 C119.33737435 198.48132055 122.3874378 204.17815056 125.4375 209.875 C126.06035889 211.03821777 126.68321777 212.20143555 127.32495117 213.39990234 C128.58636947 215.7558024 129.84765642 218.11177273 131.10888672 220.46777344 C133.61383927 225.14685099 136.12027523 229.82513372 138.62670898 234.50341797 C139.87763129 236.83832078 141.12844474 239.17328191 142.37915039 241.50830078 C145.4776178 247.29291193 148.57731543 253.07685694 151.6796875 258.859375 C156.90306771 268.59816172 162.12358871 278.33813931 167.30078125 288.1015625 C167.66211655 288.78298309 168.02345184 289.46440369 168.39573669 290.16647339 C169.12721286 291.54605293 169.85867342 292.92564075 170.59011841 294.30523682 C170.95225433 294.98825867 171.31439026 295.67128052 171.6875 296.375 C172.04987762 297.05850525 172.41225525 297.7420105 172.78561401 298.44622803 C177.57221479 307.47105834 182.41507052 316.46128151 187.33276367 325.41552734 C192.38229781 334.64071984 197.27737136 343.94701169 202.18624878 353.24749756 C206.73482926 361.86310082 211.30687964 370.46193352 216 379 C221.05519967 388.19936018 225.97339165 397.46824996 230.875 406.75 C237.94286697 420.13302383 245.08173145 433.47492584 252.27148438 446.79296875 C255.96412422 453.64417172 259.63512617 460.50699187 263.30737305 467.36914062 C263.92652588 468.52607422 264.54567871 469.68300781 265.18359375 470.875 C265.49443405 471.45584351 265.80527435 472.03668701 266.12553406 472.63513184 C268.0865053 476.29799298 270.05225099 479.9582513 272.02149963 483.6166687 C273.36065392 486.10476096 274.69832105 488.59365146 276.03591919 491.08258057 C276.96059977 492.80174708 277.8873584 494.51979539 278.81420898 496.23779297 C281.88774046 501.95908533 284.91590861 507.70299978 287.8671875 513.48828125 C288.72739502 515.16724487 288.72739502 515.16724487 289.60498047 516.88012695 C292.32539834 522.96416966 292.71446933 528.29041041 290.9375 534.6875 C288.31082005 541.32455737 284.70490768 545.54678787 278.125 548.4375 C271.28435216 550.81329386 266.01558186 550.72707611 259.14550781 548.05053711 C255.27023585 546.15302969 252.17622048 543.37791804 248.9375 540.5625 C247.44219619 539.29724293 245.94608703 538.03293709 244.44921875 536.76953125 C243.70462402 536.13611816 242.9600293 535.50270508 242.19287109 534.85009766 C238.92426105 532.09241263 235.59455409 529.41471336 232.25 526.75 C231.63366699 526.25830322 231.01733398 525.76660645 230.38232422 525.26000977 C224.3119711 520.43128316 218.17574843 515.69286098 212 511 C211.40670898 510.54689453 210.81341797 510.09378906 210.20214844 509.62695312 C170.21090225 479.11557849 127.39125448 452.34031094 82.46191406 429.74169922 C80.2501859 428.62897223 78.04093672 427.51129497 75.83496094 426.38720703 C13.37067678 394.65180775 -65.30025218 370.24524622 -134.59570312 392.14477539 C-144.32435211 395.36365531 -153.70503076 398.83760121 -162.69140625 403.78515625 C-165 405 -165 405 -167 405 C-167 404.01 -167 403.02 -167 402 C-165.55737305 400.77661133 -165.55737305 400.77661133 -163.51171875 399.58203125 C-162.75262207 399.13625732 -161.99352539 398.6904834 -161.21142578 398.23120117 C-160.37853027 397.76302979 -159.54563477 397.2948584 -158.6875 396.8125 C-157.39948486 396.08220581 -157.39948486 396.08220581 -156.08544922 395.3371582 C-137.62489848 385.08597631 -118.06280488 378.92781251 -97.4375 374.6875 C-96.66543213 374.52797852 -95.89336426 374.36845703 -95.09790039 374.20410156 C-40.11564565 363.57939797 19.08236101 378.76882611 71 396 C71.87897949 396.28987793 72.75795898 396.57975586 73.66357422 396.87841797 C113.61260331 410.1379969 151.97971428 429.13276227 189 449 C188.27337158 447.92782227 187.54674316 446.85564453 186.7980957 445.75097656 C172.90906406 425.24758138 159.09257012 404.70136682 145.5 384 C135.93348844 369.43093303 126.27098359 354.93273249 116.5 340.5 C106.1118014 325.15557842 95.85838316 309.7289709 85.6875 294.23974609 C76.72295137 280.59247662 67.65375417 267.02102213 58.5 253.5 C48.1118014 238.15557842 37.85838316 222.7289709 27.6875 207.23974609 C18.72294923 193.59247336 9.65356587 180.02115222 0.5 166.5 C-10.69537987 149.96145245 -21.7495976 133.33514639 -32.70507812 116.63671875 C-38.1190677 108.38753873 -43.54820714 100.15242515 -49.08984375 91.98828125 C-50.02144885 90.611115 -50.95300953 89.23391871 -51.88452148 87.85668945 C-53.55359292 85.39011366 -55.23537173 82.93301567 -56.92602539 80.48120117 C-66.55720203 66.25742404 -71.3552247 52.46450744 -68.3515625 35.29296875 C-64.90159605 21.92066289 -57.78843602 11.04420625 -46 3.75 C-32.52147004 -3.91987668 -14.58544815 -6.65967511 0 0 Z " fill="#004B69" transform="translate(465,131)"/>
<path d="M0 0 C1.72833545 1.49806321 3.43723301 3.0188746 5.125 4.5625 C5.97578125 5.33207031 6.8265625 6.10164063 7.703125 6.89453125 C28.2981929 26.44721075 39.77704825 54.41142343 40.52954102 82.58300781 C40.82580706 111.61269113 31.88443661 138.89979017 12.125 160.5625 C11.44050781 161.32820312 10.75601563 162.09390625 10.05078125 162.8828125 C-8.5703005 182.63974582 -35.87016716 194.83732413 -62.8828125 195.84765625 C-94.2201298 196.51380026 -123.22312976 187.36177286 -146.32958984 165.62988281 C-166.43861004 145.97477849 -178.71169584 118.59296574 -179.16723633 90.39892578 C-179.26972021 72.57660828 -177.2197098 56.93194121 -169.875 40.5625 C-169.44574219 39.5828125 -169.01648438 38.603125 -168.57421875 37.59375 C-158.15006208 15.27724558 -140.64979917 -1.36504546 -118.875 -12.4375 C-118.04742188 -12.86933594 -117.21984375 -13.30117188 -116.3671875 -13.74609375 C-110.64505704 -16.55466237 -104.80630668 -18.46738617 -98.6875 -20.1875 C-97.93911865 -20.39834229 -97.1907373 -20.60918457 -96.41967773 -20.82641602 C-63.54228481 -29.67425463 -26.45579803 -21.09011505 0 0 Z " fill="#004B6A" transform="translate(889.875,356.4375)"/>
<path d="M0 0 C3.87005197 0.62435784 7.04811682 1.79009753 10.59375 3.44921875 C12.24008423 4.21576782 12.24008423 4.21576782 13.91967773 4.99780273 C15.69193726 5.83420288 15.69193726 5.83420288 17.5 6.6875 C18.75126206 7.27377806 20.00264791 7.85979198 21.25415039 8.44555664 C35.50511158 15.13057763 49.663916 22.00832939 63.82287598 28.88537598 C68.06815512 30.94702751 72.3145965 33.006261 76.5625 35.0625 C77.15981934 35.35177368 77.75713867 35.64104736 78.37255859 35.93908691 C88.51415964 40.84615854 98.72257972 45.59450771 108.95532227 50.30786133 C116.2048878 53.6612796 123.37490102 57.14021194 130.5 60.75 C137.95072819 64.52268202 145.45785579 68.08678088 153.09375 71.46826172 C157.73016592 73.52344224 162.34251004 75.61807091 166.9296875 77.78125 C248.02807674 116.01819896 332.04569361 150.85159202 459.625 156.1875 C460.76952637 156.18689575 461.91405273 156.1862915 463.09326172 156.18566895 C513.01934428 156.11420653 566.6486345 150.91912435 612.7734375 130.328125 C616 129 616 129 619 129 C607.98567948 153.51226233 563.23719229 170.15817526 540 179 C521.3455978 185.89490316 502.57265679 191.3509606 483 195 C481.97084473 195.19287598 480.94168945 195.38575195 479.88134766 195.58447266 C382.09220325 213.36290801 290.11841757 191.21709813 117.1875 97.875 C116.48957336 97.4115921 115.79164673 96.9481842 115.0725708 96.47073364 C97.8519571 85.02351807 81.08400286 73.04509602 65.07397461 59.94702148 C60.65065538 56.32995679 56.19015967 52.76770286 51.6875 49.25 C49.98002569 47.91092563 48.27323619 46.57098605 46.56689453 45.23046875 C45.12765821 44.10024889 43.68694718 42.97190758 42.24609375 41.84375 C35.08377956 36.12243792 28.45757142 29.88975407 21.80859375 23.58984375 C18.75066116 20.69504118 15.64714838 17.86050403 12.5 15.0625 C9.41334652 12.2949751 6.36072555 9.50149169 3.375 6.625 C2.72273438 5.99851562 2.07046875 5.37203125 1.3984375 4.7265625 C0 3 0 3 0 0 Z " fill="#009AD0" transform="translate(367,749)"/>
</svg>
